<?xml version="1.0" encoding="UTF-8" standalone="no"?>
<!-- Created with Inkscape (http://www.inkscape.org/) -->

<svg
   width="63.168148mm"
   height="81.002518mm"
   viewBox="0 0 63.168148 81.002517"
   version="1.1"
   id="svg5"
   xml:space="preserve"
   inkscape:version="1.4.4 (1:1.4.4+202605061436+dcaf3e7d9e)"
   sodipodi:docname="Main-Logo.svg"
   xmlns:inkscape="http://www.inkscape.org/namespaces/inkscape"
   xmlns:sodipodi="http://sodipodi.sourceforge.net/DTD/sodipodi-0.dtd"
   xmlns="http://www.w3.org/2000/svg"
   xmlns:svg="http://www.w3.org/2000/svg"><sodipodi:namedview
     id="namedview7"
     pagecolor="#ffffff"
     bordercolor="#000000"
     borderopacity="0.25"
     inkscape:showpageshadow="2"
     inkscape:pageopacity="0.0"
     inkscape:pagecheckerboard="0"
     inkscape:deskcolor="#d1d1d1"
     inkscape:document-units="px"
     showgrid="false"
     inkscape:zoom="1.2900929"
     inkscape:cx="220.52675"
     inkscape:cy="256.95824"
     inkscape:window-width="1366"
     inkscape:window-height="696"
     inkscape:window-x="0"
     inkscape:window-y="0"
     inkscape:window-maximized="1"
     inkscape:current-layer="layer2" /><defs
     id="defs2"><linearGradient
       id="swatch7"
       inkscape:swatch="solid"
       inkscape:label="red pink"><stop
         style="stop-color:#df496c;stop-opacity:1;"
         offset="0"
         id="stop7" /></linearGradient><linearGradient
       id="swatch6"
       inkscape:swatch="solid"
       inkscape:label="aquamarine blue"><stop
         style="stop-color:#0ca1a8;stop-opacity:1;"
         offset="0"
         id="stop6" /></linearGradient><linearGradient
       id="swatch5"
       inkscape:swatch="solid"
       inkscape:label="dark blue"><stop
         style="stop-color:#191b41;stop-opacity:1;"
         offset="0"
         id="stop5" /></linearGradient><linearGradient
       id="swatch4"
       inkscape:swatch="solid"
       inkscape:label="ocean blue"><stop
         style="stop-color:#7aa2f7;stop-opacity:1;"
         offset="0"
         id="stop4" /></linearGradient><linearGradient
       id="swatch3"
       inkscape:swatch="solid"
       inkscape:label="white blue"><stop
         style="stop-color:#c1caf5;stop-opacity:1;"
         offset="0"
         id="stop3" /></linearGradient><linearGradient
       id="swatch2"
       inkscape:swatch="solid"
       inkscape:label="medium purple"><stop
         style="stop-color:#9d7cd7;stop-opacity:1;"
         offset="0"
         id="stop2" /></linearGradient><linearGradient
       id="swatch1"
       inkscape:swatch="solid"
       inkscape:label="light purple"><stop
         style="stop-color:#bb99f7;stop-opacity:1;"
         offset="0"
         id="stop1" /></linearGradient><linearGradient
       id="linearGradient3089"
       inkscape:swatch="solid"
       inkscape:label="medium blue"><stop
         style="stop-color:#424868;stop-opacity:1;"
         offset="0"
         id="stop3087" /></linearGradient><filter
       inkscape:collect="always"
       style="color-interpolation-filters:sRGB"
       id="filter10"
       x="-0.015108142"
       y="-0.011767184"
       width="1.0302163"
       height="1.0235344"><feGaussianBlur
         inkscape:collect="always"
         stdDeviation="1.3399322"
         id="feGaussianBlur10" /></filter><filter
       inkscape:collect="always"
       style="color-interpolation-filters:sRGB"
       id="filter11"
       x="-0.03663765"
       y="-0.024976363"
       width="1.0732753"
       height="1.0499527"><feGaussianBlur
         inkscape:collect="always"
         stdDeviation="1.2346701"
         id="feGaussianBlur11" /></filter><filter
       inkscape:collect="always"
       style="color-interpolation-filters:sRGB"
       id="filter12"
       x="-0.016290699"
       y="-0.0094983047"
       width="1.0325814"
       height="1.0189966"><feGaussianBlur
         inkscape:collect="always"
         stdDeviation="0.33969732"
         id="feGaussianBlur12" /></filter></defs><g
     inkscape:label="Capa 1"
     inkscape:groupmode="layer"
     id="layer1"
     style="display:inline"
     transform="translate(-5.8010458,-5.8862136)" /><g
     inkscape:groupmode="layer"
     id="layer2"
     inkscape:label="Atom"
     transform="translate(-5.8010458,-5.8862136)"><g
       id="g12"
       transform="matrix(0.2949992,0,0,0.2949992,153.94334,-1.5474761)"
       inkscape:export-filename="Main-Logo"
       inkscape:export-xdpi="5.0656924"
       inkscape:export-ydpi="5.0656924"><g
         id="g13"><path
           style="opacity:0.84;fill:#ffffff;fill-opacity:1;stroke:none;stroke-width:0.659818;stroke-linecap:round;stroke-linejoin:round;stroke-dasharray:none;paint-order:normal;filter:url(#filter12)"
           d="m -414.84029,153.9875 -0.29096,62.12023 50.04534,23.71336 -0.64448,-37.49817 z"
           id="path12"
           sodipodi:nodetypes="ccccc" /><path
           style="opacity:0.84;fill:#ffffff;fill-opacity:1;stroke:none;stroke-width:0.667081;stroke-linecap:round;stroke-linejoin:round;stroke-dasharray:none;paint-order:normal;filter:url(#filter11)"
           d="m -378.03718,72.547446 -0.56943,41.910654 43.69024,49.93841 -24.71638,26.79143 -56.16239,-60.92911 0.0688,-29.59516 z"
           id="path11"
           sodipodi:nodetypes="ccccccc" /><path
           id="path10"
           style="opacity:0.84;fill:#ffffff;fill-opacity:1;stroke:none;stroke-width:1.3;stroke-linecap:round;stroke-linejoin:round;stroke-dasharray:none;filter:url(#filter10)"
           d="m 254.27463,69.737972 c -0.8015,0.001 -1.72296,0.3453 -2.67012,1.39216 l -98.3232,128.196838 c 0,0 -4.1818,4.22336 0.12506,8.53022 4.30686,4.30686 103.41901,132.42913 103.41901,132.42913 0,0 3.32925,6.057 7.68738,0.16071 4.35813,-5.89629 98.90198,-130.53363 98.90198,-130.53363 0,0 2.02295,-2.31223 0,-4.5682 -2.02292,-2.25598 -106.51701,-134.360278 -106.51701,-134.360278 0,0 -1.09296,-1.2489 -2.6231,-1.24695 z m 16.40003,49.175818 68.33692,87.40551 -54.75893,73.62652 0.87023,-31.94586 -44.19524,-44.45878 v 56.46012 l -46.46073,-56.6136 46.18891,-57.28281 v 26.10383 l 51.72501,57.87813 20.48402,-22.22449 -41.90028,-47.83532 z"
           transform="matrix(0.92144226,0,0,0.92144226,-631.12843,-27.661395)" /><path
           id="path3"
           style="opacity:1;fill:#000000;fill-opacity:1;stroke:#000000;stroke-width:1.3;stroke-linecap:round;stroke-linejoin:round;stroke-dasharray:none"
           d="m -398.72743,25.849019 c -0.8015,0.001 -1.72296,0.345304 -2.67012,1.392163 l -98.3232,128.196828 c 0,0 -4.1818,4.22336 0.12506,8.53022 4.30686,4.30686 103.41901,132.42913 103.41901,132.42913 0,0 3.32925,6.057 7.68738,0.16071 4.35813,-5.89629 98.90198,-130.53363 98.90198,-130.53363 0,0 2.02295,-2.31223 0,-4.5682 -2.02292,-2.25598 -106.51701,-134.360268 -106.51701,-134.360268 0,0 -1.09296,-1.248904 -2.6231,-1.246953 z m 16.40003,49.175814 68.33692,87.405507 -54.75893,73.62652 0.87023,-31.94586 -44.19524,-44.45878 v 56.46012 l -46.46073,-56.6136 46.18891,-57.28281 v 26.10383 l 51.72501,57.87813 20.48402,-22.22449 -41.90028,-47.83532 z" /></g></g><path
       id="path13"
       style="opacity:1;fill:#000000;fill-opacity:1;stroke:#000000;stroke-width:0.38175;stroke-linecap:round;stroke-linejoin:round;stroke-dasharray:none"
       d="m 111.20065,14.167247 c -0.23537,2.94e-4 -0.50596,0.1014 -0.78409,0.408814 L 81.543516,52.221628 c 0,0 -1.228,1.240206 0.03674,2.504933 1.264727,1.264727 30.369444,38.8884 30.369444,38.8884 0,0 0.97765,1.778664 2.25743,0.0472 1.27979,-1.731473 29.04301,-38.331782 29.04301,-38.331782 0,0 0.59404,-0.678995 0,-1.341471 -0.59404,-0.662475 -31.27919,-39.455484 -31.27919,-39.455484 0,0 -0.32096,-0.366746 -0.77029,-0.366173 z m 4.81594,14.440694 20.06744,25.667018 -16.0802,21.62075 0.25554,-9.381046 -12.97812,-13.055511 V 70.038911 L 93.637851,53.41408 107.20143,36.592728 v 7.665505 l 15.18927,16.996166 6.01523,-6.526321 -12.30421,-14.047048 z" /></g></svg>
